<?xml version="1.0" standalone="no"?><!DOCTYPE svg PUBLIC "-//W3C//DTD SVG 1.1//EN" "http://www.w3.org/Graphics/SVG/1.1/DTD/svg11.dtd"><svg t="1633761427349" class="icon" viewBox="0 0 1024 1024" version="1.1" xmlns="http://www.w3.org/2000/svg" p-id="15604" xmlns:xlink="http://www.w3.org/1999/xlink" width="200" height="200"><defs><style type="text/css"></style></defs><path d="M809.38 103.9H214.63c-61.69 0-110.73 50.62-110.73 110.73v594.75c0 61.69 50.62 110.72 110.73 110.72h594.75c60.11 0 110.72-50.62 110.72-110.72V214.63c0-61.7-50.62-110.73-110.72-110.73zM619.56 831.52H412.35c-4.75 0-9.49-4.75-9.49-9.49s4.75-9.49 9.49-9.49h207.21c4.75 0 9.49 4.75 9.49 9.49s-3.16 9.49-9.49 9.49z m-7.91-36.38H421.84c-11.07 0-18.98-7.91-18.98-18.98s7.91-18.98 18.98-18.98h189.81c11.08 0 18.99 7.91 18.99 18.98 0 9.49-7.91 18.98-18.99 18.98z m134.46-303.71H633.64c0.1 1.05 0.15 2.1 0.15 3.17v211.96c-1.58 18.98-15.82 34.8-34.8 34.8H440.82c-18.98 0-34.8-15.82-34.8-34.8V494.6c0-1.07 0.06-2.12 0.15-3.17H300.04c-23.73 1.58-36.38-26.89-18.99-44.29l223.03-223.03c11.07-11.07 26.89-11.07 37.96 0l223.03 223.03c17.41 17.41 4.76 44.29-18.96 44.29z" p-id="15605" fill="#8a8a8a"></path></svg>