<?xml version="1.0" standalone="no"?><!DOCTYPE svg PUBLIC "-//W3C//DTD SVG 1.1//EN" "http://www.w3.org/Graphics/SVG/1.1/DTD/svg11.dtd"><svg t="1633761248372" class="icon" viewBox="0 0 1024 1024" version="1.1" xmlns="http://www.w3.org/2000/svg" p-id="14708" xmlns:xlink="http://www.w3.org/1999/xlink" width="200" height="200"><defs><style type="text/css"></style></defs><path d="M768 192 256 192C217.6 192 192 217.6 192 256l0 576c0 38.4 25.6 64 64 64l512 0c38.4 0 64-25.6 64-64L832 256C832 217.6 806.4 192 768 192zM800 819.2c0 25.6-19.2 51.2-51.2 51.2L268.8 870.4c-25.6 0-51.2-19.2-51.2-51.2L217.6 268.8c0-25.6 19.2-51.2 51.2-51.2l480 0c25.6 0 51.2 19.2 51.2 51.2L800 819.2z" p-id="14709" fill="#bfbfbf"></path><path d="M704 192 320 192l0 0c0-38.4 25.6-64 64-64l256 0C678.4 128 704 153.6 704 192L704 192z" p-id="14710" fill="#bfbfbf"></path><path d="M672 358.4 345.6 358.4c-12.8 0-19.2-6.4-19.2-19.2l0 0c0-12.8 6.4-19.2 19.2-19.2l326.4 0c12.8 0 19.2 6.4 19.2 19.2l0 0C691.2 352 684.8 358.4 672 358.4z" p-id="14711" fill="#bfbfbf"></path><path d="M672 448 345.6 448C339.2 448 326.4 441.6 326.4 428.8l0 0c0-12.8 6.4-19.2 19.2-19.2l326.4 0c12.8 0 19.2 6.4 19.2 19.2l0 0C691.2 441.6 684.8 448 672 448z" p-id="14712" fill="#bfbfbf"></path><path d="M505.6 544 345.6 544c-12.8 0-19.2-6.4-19.2-19.2l0 0C326.4 518.4 339.2 512 345.6 512l160 0c12.8 0 19.2 6.4 19.2 19.2l0 0C524.8 537.6 518.4 544 505.6 544z" p-id="14713" fill="#bfbfbf"></path><path d="M326.4 614.4l96 0 0 153.6-96 0 0-153.6Z" p-id="14714" fill="#bfbfbf"></path><path d="M467.2 672l96 0 0 96-96 0 0-96Z" p-id="14715" fill="#bfbfbf"></path><path d="M595.2 537.6l96 0 0 224-96 0 0-224Z" p-id="14716" fill="#bfbfbf"></path></svg>