<?xml version="1.0" standalone="no"?><!DOCTYPE svg PUBLIC "-//W3C//DTD SVG 1.1//EN" "http://www.w3.org/Graphics/SVG/1.1/DTD/svg11.dtd"><svg t="1633687892734" class="icon" viewBox="0 0 1024 1024" version="1.1" xmlns="http://www.w3.org/2000/svg" p-id="3822" xmlns:xlink="http://www.w3.org/1999/xlink" width="200" height="200"><defs><style type="text/css"></style></defs><path d="M214 275.9l362.8-118.5c19.3-6.3 39.2 7.8 39.2 27.7v82.1" fill="#8a8a8a" p-id="3823"></path><path d="M214 291.9c-6.7 0-13-4.3-15.2-11-2.8-8.4 1.8-17.4 10.2-20.2l362.8-118.5c14.1-4.6 29.6-2.2 41.5 6.5 11.9 8.6 18.7 21.9 18.7 36.4v82.1c0 8.8-7.2 16-16 16s-16-7.2-16-16v-82.1c0-4.2-2-8-5.5-10.5-3.7-2.7-8.3-3.4-12.7-2L219 291.1c-1.7 0.5-3.4 0.8-5 0.8z" fill="#8a8a8a" p-id="3824"></path><path d="M684.5 885.5H212.4c-19.8 0-35.9-16.1-35.9-36v-552c0-19.8 16.1-36 35.9-36h472.1c19.8 0 35.9 16.1 35.9 36v552c0 19.9-16.1 36-35.9 36z m-472.1-592c-2.2 0-4 1.8-4 4v552c0 2.2 1.8 4 4 4h472.1c2.2 0 4-1.8 4-4v-552c0-2.2-1.8-4-4-4H212.4z" fill="#8a8a8a" p-id="3825"></path><path d="M443.5 656.1c-73.8 0-133.9-59-133.9-131.6s60.1-131.6 133.9-131.6 133.9 59 133.9 131.6-60.1 131.6-133.9 131.6z m0-239.2c-60.6 0-109.9 48.3-109.9 107.6s49.3 107.6 109.9 107.6c60.6 0 109.9-48.3 109.9-107.6s-49.3-107.6-109.9-107.6z" fill="#8a8a8a" p-id="3826"></path><path d="M443.5 656c-19.6 0-37.3-14.9-49.8-42-11.1-24.1-17.2-55.9-17.2-89.5s6.1-65.4 17.2-89.5c12.5-27.1 30.1-42 49.8-42 19.6 0 37.3 14.9 49.8 42 11.1 24.1 17.2 55.9 17.2 89.5s-6.1 65.4-17.2 89.5c-12.5 27.1-30.2 42-49.8 42z m0-239c-9.5 0-20 10.5-28.1 28-9.7 21-15 49.3-15 79.5s5.3 58.4 15 79.5c8.1 17.6 18.6 28 28.1 28s20-10.5 28.1-28c9.7-21 15-49.3 15-79.5s-5.3-58.4-15-79.5c-8.2-17.5-18.7-28-28.1-28z" fill="#8a8a8a" p-id="3827"></path><path d="M561.5 536.5H325.4c-6.6 0-12-5.4-12-12s5.4-12 12-12h236.1c6.6 0 12 5.4 12 12s-5.4 12-12 12z" fill="#8a8a8a" p-id="3828"></path><path d="M535.3 741.6h-190c-6.6 0-12-5.4-12-12s5.4-12 12-12h190c6.6 0 12 5.4 12 12s-5.4 12-12 12zM510.2 799.9h-140c-6.6 0-12-5.4-12-12s5.4-12 12-12h140c6.6 0 12 5.4 12 12s-5.3 12-12 12z" fill="#8a8a8a" p-id="3829"></path></svg>