<?xml version="1.0" standalone="no"?><!DOCTYPE svg PUBLIC "-//W3C//DTD SVG 1.1//EN" "http://www.w3.org/Graphics/SVG/1.1/DTD/svg11.dtd"><svg t="1633760912877" class="icon" viewBox="0 0 1024 1024" version="1.1" xmlns="http://www.w3.org/2000/svg" p-id="13792" xmlns:xlink="http://www.w3.org/1999/xlink" width="200" height="200"><defs><style type="text/css"></style></defs><path d="M512 904.9088c-104.96 0-203.5712-40.8576-277.8112-115.0976S119.0912 616.96 119.0912 512s40.8576-203.5712 115.0976-277.8112S407.04 119.0912 512 119.0912s203.5712 40.8576 277.8112 115.0976S904.9088 407.04 904.9088 512s-40.8576 203.5712-115.0976 277.8112S616.96 904.9088 512 904.9088z m0-736.768c-91.8528 0-178.176 35.7376-243.0976 100.7616-65.024 64.9216-100.7616 151.2448-100.7616 243.0976s35.7376 178.176 100.7616 243.0976c64.9216 64.9216 151.3472 100.7616 243.0976 100.7616s178.176-35.7376 243.0976-100.7616c64.9216-64.9216 100.7616-151.3472 100.7616-243.0976s-35.7376-178.176-100.7616-243.0976C690.176 203.8784 603.8528 168.1408 512 168.1408z" p-id="13793" fill="#8a8a8a"></path><path d="M625.3568 704.512c-5.8368 0-11.6736-1.4336-17.1008-4.3008l-97.28-51.0976-97.28 51.0976c-12.4928 6.5536-27.3408 5.5296-38.7072-2.7648-11.3664-8.2944-16.9984-22.1184-14.6432-35.9424L378.88 553.1648l-78.6432-76.6976c-10.1376-9.8304-13.7216-24.2688-9.3184-37.6832 4.4032-13.4144 15.7696-23.04 29.696-24.9856l108.6464-15.7696 48.64-98.5088c6.2464-12.6976 18.8416-20.48 32.9728-20.48 14.1312 0 26.7264 7.8848 32.9728 20.48l48.64 98.5088 108.6464 15.7696c13.9264 2.048 25.3952 11.5712 29.696 25.088 4.4032 13.4144 0.8192 27.8528-9.3184 37.6832l-78.6432 76.6976L661.504 661.504c2.3552 13.9264-3.1744 27.648-14.6432 35.9424-6.3488 4.7104-13.9264 7.0656-21.504 7.0656zM352.256 458.752l65.4336 63.7952c8.704 8.4992 12.5952 20.5824 10.5472 32.5632l-15.4624 90.112 80.9984-42.496c10.752-5.632 23.552-5.632 34.2016 0l80.9984 42.496-15.4624-90.112c-2.048-11.9808 1.9456-24.064 10.5472-32.5632l65.4336-63.7952-90.5216-13.1072c-11.9808-1.7408-22.3232-9.216-27.7504-20.0704L510.976 343.552l-40.448 82.0224c-5.3248 10.8544-15.6672 18.432-27.7504 20.1728L352.256 458.752z m147.6608-137.5232z" p-id="13794" fill="#8a8a8a"></path></svg>